<svg width="16" height="16" fill="none" xmlns="http://www.w3.org/2000/svg"><g clip-path="url(#clip0)" fill="#868686"><path d="M.158 9.775a.54.54 0 000 .762l.81.81a.54.54 0 00.684.065l1.703-1.157-1.15 1.714a.54.54 0 00.066.682l1.756 1.756a.54.54 0 00.616.104l.303-.146-.145.323a.54.54 0 00.11.603l.552.551c.21.21.552.21.762 0l4.282-4.282L4.44 5.493.158 9.775zm11.147.988l1.24-1.24a.54.54 0 000-.763l-1.177-1.175a1.046 1.046 0 01-.301-.858c.035-.318.21-.6.48-.772 3.455-2.203 3.778-2.525 3.883-2.63a1.95 1.95 0 000-2.755 1.95 1.95 0 00-2.755 0c-.105.105-.428.428-2.63 3.882-.172.27-.453.445-.772.48a1.046 1.046 0 01-.858-.3L7.24 3.456a.54.54 0 00-.763 0l-1.24 1.24 6.068 6.067zM13.48 1.44a.762.762 0 111.078 1.078.762.762 0 01-1.078-1.078z"/></g><defs><clipPath id="clip0"><path fill="#fff" transform="rotate(-180 8 8)" d="M0 0h16v16H0z"/></clipPath></defs></svg>