<svg width="60" height="60" fill="none" xmlns="http://www.w3.org/2000/svg"><path d="M44.564 29.035c-8.51 0-15.435 6.925-15.435 15.436 0 8.51 6.925 15.436 15.435 15.436C53.075 59.907 60 52.982 60 44.47c0-8.51-6.925-15.436-15.436-15.436zM31.058 44.471c0-7.448 6.059-13.506 13.506-13.506a13.46 13.46 0 019.47 3.89l-12.95 6.134-6.134 12.952a13.458 13.458 0 01-3.892-9.47zm12.4-2.47l6.796-3.22-3.219 6.796L43.458 42zm2.213 4.94l-6.797 3.219 3.22-6.796 3.577 3.577zm-1.107 11.036a13.46 13.46 0 01-9.47-3.89l12.951-6.135 6.135-12.95a13.457 13.457 0 013.89 9.469c0 7.448-6.058 13.506-13.506 13.506z" fill="url(#paint0_linear)"/><path d="M44.564 34.824a9.54 9.54 0 014.284 1.014l.86-1.728a11.462 11.462 0 00-5.144-1.216c-6.383 0-11.576 5.193-11.576 11.577 0 1.79.409 3.521 1.215 5.143l1.728-.86a9.538 9.538 0 01-1.014-4.283c0-5.32 4.328-9.647 9.647-9.647z" fill="url(#paint1_linear)"/><path d="M54.926 39.328l-1.728.86a9.538 9.538 0 011.014 4.283c0 5.32-4.328 9.647-9.648 9.647-1.49 0-2.93-.341-4.283-1.014l-.86 1.728a11.462 11.462 0 005.143 1.216c6.384 0 11.577-5.193 11.577-11.577 0-1.79-.409-3.521-1.215-5.143z" fill="url(#paint2_linear)"/><path d="M30.094 34.824v-4.438l1.865.509a4.77 4.77 0 011.45.668l1.088-1.594a6.77 6.77 0 00-2.03-.936l-6.232-1.7v-1.192h-1.93v1.833a4.932 4.932 0 01-4.823 3.956 4.932 4.932 0 01-4.824-3.956v-1.833h-1.93v1.193l-6.232 1.7c-.179.049-.348.121-.52.184v-4.041a2.898 2.898 0 012.894-2.895h3.46l3.011 3.011a2.87 2.87 0 002.046.848h4.19c.773 0 1.5-.3 2.047-.848l3.011-3.01h3.459a2.898 2.898 0 012.894 2.894v1.929h1.93v-1.93a4.83 4.83 0 00-4.824-4.823h-1.866c.188-.326.347-.667.477-1.02 1.87-.265 3.318-1.86 3.318-3.804 0-.706-.205-1.359-.536-1.93h5.36a2.898 2.898 0 002.894-2.893 2.898 2.898 0 00-2.894-2.894h-6.81C29.554 3.477 25.872.094 21.41.094h-3.859c-4.787 0-8.682 3.894-8.682 8.682v3.43c-1.148.67-1.93 1.901-1.93 3.323 0 1.943 1.448 3.539 3.319 3.804.13.352.29.693.477 1.02H8.87a4.83 4.83 0 00-4.824 4.824v5.116a6.693 6.693 0 00-2.452 4.267L0 43.505h27.2v-1.93h-.965v-12.24l1.93.526v4.964h1.929zm0-25.083h6.753a.966.966 0 010 1.93h-6.753V9.74zm-.965 7.249v-3.122c.574.335.965.95.965 1.661 0 .715-.396 1.334-.975 1.666.002-.068.01-.136.01-.205zm-20.26-1.46c0-.712.391-1.327.965-1.662v3.122c0 .07.008.137.01.205a1.923 1.923 0 01-.974-1.666zm18.33 1.46c0 1.289-.501 2.5-1.412 3.412L22.26 23.93a.96.96 0 01-.683.283h-4.19a.96.96 0 01-.683-.283l-3.527-3.527a4.798 4.798 0 01-1.412-3.411V13.6H27.2v3.39zm-10.612-5.32V9.741h5.789v1.93h-5.789zM10.8 8.776a6.761 6.761 0 016.753-6.753h3.86a6.761 6.761 0 016.752 6.753v2.894h-3.859V9.741c0-1.064-.865-1.93-1.93-1.93h-5.788a1.932 1.932 0 00-1.929 1.93v1.93H10.8V8.775zm-1.93 32.8H2.305l1.194-6.71a4.82 4.82 0 013.506-3.97l1.866-.51v11.19zm3.86 0H10.8V29.86l1.93-.526v12.243zm11.576 0h-9.647v-9.744c1.252 1.25 2.959 2.027 4.824 2.027 1.863 0 3.568-.776 4.823-2.041v9.759z" fill="url(#paint3_linear)"/><defs><linearGradient id="paint0_linear" x1="44.564" y1="29.035" x2="44.564" y2="59.907" gradientUnits="userSpaceOnUse"><stop stop-color="#5889E9"/><stop offset="1" stop-color="#4CD4C9"/></linearGradient><linearGradient id="paint1_linear" x1="41.348" y1="32.894" x2="41.348" y2="49.614" gradientUnits="userSpaceOnUse"><stop stop-color="#5889E9"/><stop offset="1" stop-color="#4CD4C9"/></linearGradient><linearGradient id="paint2_linear" x1="47.781" y1="39.328" x2="47.781" y2="56.048" gradientUnits="userSpaceOnUse"><stop stop-color="#5889E9"/><stop offset="1" stop-color="#4CD4C9"/></linearGradient><linearGradient id="paint3_linear" x1="19.87" y1=".094" x2="19.87" y2="43.506" gradientUnits="userSpaceOnUse"><stop stop-color="#5889E9"/><stop offset="1" stop-color="#4CD4C9"/></linearGradient></defs></svg>