<svg width="40" height="40" fill="none" xmlns="http://www.w3.org/2000/svg"><path d="M3.078 29.95a.67.67 0 00.727-.145L14.669 18.94l10.86 10.864a.666.666 0 001.138-.472v-8.666a.667.667 0 00-1.334 0v7.056L15.142 17.53a.691.691 0 00-.947 0L4 27.724V20h3.333A.667.667 0 008 19.333v-.666h1.333v.666a.667.667 0 001.334 0V18a.667.667 0 00-.667-.667H7.333a.667.667 0 00-.666.667v.667H3.333a.667.667 0 00-.666.666v10c0 .27.162.513.411.616z" fill="#fff"/><path d="M18.733 13.995A29.603 29.603 0 0018.667 16c0 3.34.996 5.333 2.666 5.333 2.106 0 2.667-2.514 2.667-4a.667.667 0 00-1.333 0c0 .027-.058 2.667-1.334 2.667C20.561 20 20 18.318 20 16c0-7.773 2.728-8.658 2.814-8.683a.667.667 0 00-.278-1.304c-.133.027-.617.154-1.198.652 0-.115.01-.23.04-.344.093-.344.313-.631.622-.809a1.326 1.326 0 011.011-.133 1.334 1.334 0 01.322 2.443A.667.667 0 0024 8.975a2.67 2.67 0 00.976-3.643 2.651 2.651 0 00-1.62-1.242 2.647 2.647 0 00-2.023.266 2.651 2.651 0 00-1.242 1.62 2.653 2.653 0 00.222 1.921c-.572.93-1.106 2.317-1.404 4.378-.998-1.195-1.576-2.718-1.576-4.276A6.674 6.674 0 0124 1.333 6.674 6.674 0 0130.667 8a6.674 6.674 0 01-8.782 6.325.666.666 0 10-.423 1.264c.816.272 1.67.41 2.538.41 4.411 0 8-3.588 8-8C32 3.59 28.41 0 24 0s-8 3.589-8 8c0 2.273 1.02 4.483 2.733 5.995zm21.072 5.534l-6.924-6.924a.667.667 0 00-.943.942l6.729 6.73v2.39h-2.391L36 22.39v-1.724a.667.667 0 00-.667-.667h-.666v-.666a.667.667 0 00-.667-.667h-1.723L32 18.39v-1.723a.667.667 0 00-.667-.667H29.61l-.064-.065a.667.667 0 00-.943.943l.26.26a.665.665 0 00.471.195h1.334v1.333c0 .177.07.346.194.47l.667.669A.667.667 0 0032 20h1.333v.667c0 .368.3.666.667.666h.667v1.334c0 .176.07.346.195.471l.667.667A.665.665 0 0036 24h3.333a.667.667 0 00.667-.667V20a.665.665 0 00-.195-.471zm-23.138 9.804A.667.667 0 0016 30v5.333c0 .368.299.667.667.667h4a.667.667 0 00.666-.667V30a.667.667 0 00-.666-.667h-4zM20 34.667h-2.667v-4H20v4z" fill="#fff"/><path d="M39.333 38.667H32v-2.734a3.339 3.339 0 002.667-3.266c0-.087-.038-8.667-3.334-8.667C28.038 24 28 32.58 28 32.667a3.34 3.34 0 002.667 3.266v2.734h-5.334V31A.667.667 0 0024 31v7.667h-9.333V30a.667.667 0 00-.667-.667H8.667A.667.667 0 008 30v8.667H5.333V31A.667.667 0 004 31v7.667H.667a.667.667 0 000 1.333h38.666a.667.667 0 000-1.333zm-26-4.667h-.666a.667.667 0 000 1.333h.666v3.334h-4v-8h4V34zm16-1.333c0-3.322.892-7.334 2-7.334s2 4.012 2 7.334c0 1.102-.897 2-2 2-1.102 0-2-.898-2-2z" fill="#fff"/></svg>