<svg width="60" height="60" fill="none" xmlns="http://www.w3.org/2000/svg"><path d="M59 49H20.414L6.707 35.293a1 1 0 10-1.414 1.414l4.816 4.816L4.5 49H1a1 1 0 000 2h5.132l-4.964 7.445a1 1 0 001.664 1.11L8.535 51H21v8a1 1 0 002 0v-8h27.465l5.7 8.555a1 1 0 001.664-1.11L52.868 51H59a1 1 0 000-2zM7 49l4.537-6.05L17.586 49H7z" fill="url(#paint0_linear)"/><path d="M56 42H24.414L23 40.586V20.4c.596.386 1.29.594 2 .6a3.77 3.77 0 002.223-.741 1.337 1.337 0 011.554 0 3.7 3.7 0 004.446 0 1.337 1.337 0 011.554 0 3.716 3.716 0 004.687-.19c.343-.286.536-.714.523-1.161C39.633 10.067 31.771 3 22 3 11.253 3 4.323 10.066 4.011 18.906c-.011.448.182.876.525 1.164A3.808 3.808 0 007 21a3.77 3.77 0 002.223-.741 1.337 1.337 0 011.554 0 3.7 3.7 0 004.446 0 1.337 1.337 0 011.554 0 3.661 3.661 0 004.223.14v18.19l-7.293-7.292a1 1 0 00-1.414 0l-3 3a1 1 0 000 1.414l12 12A1 1 0 0022 48h34a1 1 0 001-1v-4a1 1 0 00-1-1zM20.046 18.642A1.775 1.775 0 0119 19a1.78 1.78 0 01-1.046-.358 3.34 3.34 0 00-3.908 0 1.705 1.705 0 01-2.092 0 3.34 3.34 0 00-3.908 0A1.775 1.775 0 017 19a1.75 1.75 0 01-.977-.311C6.455 10.614 12.983 5 22 5c8.542 0 15.5 5.99 15.974 13.692A1.755 1.755 0 0137 19a1.78 1.78 0 01-1.046-.358 3.339 3.339 0 00-3.908 0 1.705 1.705 0 01-2.092 0 3.339 3.339 0 00-3.908 0 1.705 1.705 0 01-2.092 0 3.339 3.339 0 00-3.908 0zM55 46H22.414l-11-11L13 33.414l8.292 8.292 2 2A1 1 0 0024 44h31v2z" fill="url(#paint1_linear)"/><path d="M51 4.444a4.556 4.556 0 100 9.112 4.556 4.556 0 000-9.112zm0 7.112a2.556 2.556 0 110-5.112 2.556 2.556 0 010 5.112z" fill="url(#paint2_linear)"/><path d="M44.777 8H43a1 1 0 000 2h1.777a1 1 0 000-2z" fill="url(#paint3_linear)"/><path d="M47.308 3.894L46.05 2.636a1 1 0 00-1.414 1.414l1.258 1.258a1 1 0 001.414-1.414z" fill="url(#paint4_linear)"/><path d="M51 0a1 1 0 00-1 1v1.777a1 1 0 002 0V1a1 1 0 00-1-1z" fill="url(#paint5_linear)"/><path d="M57.364 2.636a1 1 0 00-1.414 0l-1.258 1.258a1 1 0 101.414 1.414l1.258-1.258a1 1 0 000-1.414z" fill="url(#paint6_linear)"/><path d="M59 8h-1.777a1 1 0 000 2H59a1 1 0 000-2z" fill="url(#paint7_linear)"/><path d="M57.364 13.95l-1.258-1.258a1 1 0 00-1.414 1.414l1.258 1.258a1 1 0 001.414-1.414z" fill="url(#paint8_linear)"/><path d="M51 14.223a1 1 0 00-1 1V17a1 1 0 002 0v-1.777a1 1 0 00-1-1z" fill="url(#paint9_linear)"/><path d="M47.283 12.692a1 1 0 00-1.39 0l-1.257 1.258a1 1 0 101.414 1.414l1.258-1.258a1 1 0 00-.025-1.414z" fill="url(#paint10_linear)"/><defs><linearGradient id="paint0_linear" x1="30" y1="34.987" x2="30" y2="60" gradientUnits="userSpaceOnUse"><stop stop-color="#5889E9"/><stop offset="1" stop-color="#4CD4C9"/></linearGradient><linearGradient id="paint1_linear" x1="30.505" y1="3" x2="30.505" y2="48" gradientUnits="userSpaceOnUse"><stop stop-color="#5889E9"/><stop offset="1" stop-color="#4CD4C9"/></linearGradient><linearGradient id="paint2_linear" x1="51" y1="4.444" x2="51" y2="13.556" gradientUnits="userSpaceOnUse"><stop stop-color="#5889E9"/><stop offset="1" stop-color="#4CD4C9"/></linearGradient><linearGradient id="paint3_linear" x1="43.888" y1="8" x2="43.888" y2="10" gradientUnits="userSpaceOnUse"><stop stop-color="#5889E9"/><stop offset="1" stop-color="#4CD4C9"/></linearGradient><linearGradient id="paint4_linear" x1="45.972" y1="2.355" x2="45.972" y2="5.589" gradientUnits="userSpaceOnUse"><stop stop-color="#5889E9"/><stop offset="1" stop-color="#4CD4C9"/></linearGradient><linearGradient id="paint5_linear" x1="51" y1="0" x2="51" y2="3.777" gradientUnits="userSpaceOnUse"><stop stop-color="#5889E9"/><stop offset="1" stop-color="#4CD4C9"/></linearGradient><linearGradient id="paint6_linear" x1="56.022" y1="2.343" x2="56.022" y2="5.613" gradientUnits="userSpaceOnUse"><stop stop-color="#5889E9"/><stop offset="1" stop-color="#4CD4C9"/></linearGradient><linearGradient id="paint7_linear" x1="58.111" y1="8" x2="58.111" y2="10" gradientUnits="userSpaceOnUse"><stop stop-color="#5889E9"/><stop offset="1" stop-color="#4CD4C9"/></linearGradient><linearGradient id="paint8_linear" x1="56.022" y1="12.399" x2="56.022" y2="15.645" gradientUnits="userSpaceOnUse"><stop stop-color="#5889E9"/><stop offset="1" stop-color="#4CD4C9"/></linearGradient><linearGradient id="paint9_linear" x1="51" y1="14.223" x2="51" y2="18" gradientUnits="userSpaceOnUse"><stop stop-color="#5889E9"/><stop offset="1" stop-color="#4CD4C9"/></linearGradient><linearGradient id="paint10_linear" x1="45.96" y1="12.411" x2="45.96" y2="15.669" gradientUnits="userSpaceOnUse"><stop stop-color="#5889E9"/><stop offset="1" stop-color="#4CD4C9"/></linearGradient></defs></svg>