<svg width="40" height="40" fill="none" xmlns="http://www.w3.org/2000/svg"><g clip-path="url(#clip0)" fill="#fff"><path d="M9.805 13.138L21.333 1.61l11.529 11.528a.664.664 0 00.471.196h2a.666.666 0 00.667-.667V2a.666.666 0 00-.667-.666H32V.667A.666.666 0 0031.333 0h-2.666A.666.666 0 0028 .667v.666h-2a.666.666 0 100 1.334h2.667A.666.666 0 0029.333 2v-.667h1.334V2c0 .368.298.667.666.667h3.334V12h-1.058L21.805.195a.666.666 0 00-.943 0L9.057 12H8V2.667h8.667a.667.667 0 000-1.333H7.333A.667.667 0 006.667 2v10.667c0 .368.298.666.666.666h2c.177 0 .347-.07.472-.195z"/><path d="M18.667 8v3.334c0 .367.298.666.666.666h4a.666.666 0 00.667-.666V8a2.67 2.67 0 00-2.667-2.666A2.67 2.67 0 0018.667 8zm4 2.667H20V9.333h2.667v1.334zm0-2.667H20a1.335 1.335 0 012.667 0zM3.333 24C.038 24 0 32.58 0 32.667a3.34 3.34 0 002.667 3.266v3.4a.667.667 0 001.333 0v-3.4a3.339 3.339 0 002.667-3.266c0-.087-.038-8.667-3.334-8.667zm0 10.667c-1.102 0-2-.898-2-2 0-3.322.892-7.334 2-7.334s2 4.012 2 7.334c0 1.102-.897 2-2 2zm20-10.667a.666.666 0 00.667-.667V18a.666.666 0 00-.667-.667h-4a.667.667 0 00-.666.667v5.333c0 .368.298.667.666.667h4zM20 18.667h2.667V20H20v-1.333zm0 2.666h2.667v1.334H20v-1.334zm12 6.001a.666.666 0 00-.667-.667H8.667a.667.667 0 00-.667.666v12a.667.667 0 001.333 0V28h22a.666.666 0 00.667-.666z"/><path d="M30.667 30a.666.666 0 00-.667-.666H19.333a.667.667 0 00-.666.666v5.333c0 .368.298.667.666.667H30a.667.667 0 00.667-.667V30zM24 34.667h-4v-4h4v4zm5.333 0h-4v-4h4v4z"/><path d="M38 36c-.115 0-.23.01-.343.03a2.648 2.648 0 00-2.99-1.277v-19.42a.666.666 0 00-.667-.666H8.667a.667.667 0 00-.667.667v9.333a.667.667 0 001.333 0V16h24v19.577c-.122.14-.233.288-.324.453A2.002 2.002 0 0030.666 38c0 1.103.898 2 2 2H38c1.103 0 2-.897 2-2s-.897-2-2-2zm0 2.667h-5.333a.667.667 0 010-1.334.66.66 0 01.36.11.668.668 0 001.012-.41A1.324 1.324 0 0135.333 36c.622 0 1.154.425 1.294 1.032a.668.668 0 001.011.41c.434-.28 1.029.063 1.029.558a.667.667 0 01-.667.667z"/><path d="M28.667 38.667h-10V38a.667.667 0 00-.667-.667h-.667V30a.667.667 0 00-.666-.666h-4A.667.667 0 0012 30v7.333h-.666a.667.667 0 000 1.334h6v.666c0 .368.298.667.666.667h10.667a.666.666 0 100-1.333zM16 33.333h-.667a.667.667 0 000 1.334H16v2.666h-2.667v-6.666H16v2.666zM30 24a.666.666 0 00.667-.667V18a.667.667 0 00-.667-.667h-4a.667.667 0 00-.667.667v5.333c0 .368.298.667.667.667h4zm-3.333-5.333h2.666V20h-2.666v-1.333zm0 2.666h2.666v1.334h-2.666v-1.334zm-10 2.667a.667.667 0 00.666-.667V18a.667.667 0 00-.666-.667h-4A.667.667 0 0012 18v5.333c0 .368.299.667.667.667h4zm-3.334-5.333H16V20h-2.667v-1.333zm0 2.666H16v1.334h-2.667v-1.334z"/></g><defs><clipPath id="clip0"><path fill="#fff" d="M0 0h40v40H0z"/></clipPath></defs></svg>