<svg width="40" height="40" fill="none" xmlns="http://www.w3.org/2000/svg"><path d="M25.067 36.667a.663.663 0 00-.66-.667h-1.979v-8.667a.663.663 0 00-.66-.666h-3.957a.663.663 0 00-.66.666V36h-1.979a.663.663 0 00-.66.667v2h-3.298a.663.663 0 00-.66.666c0 .368.295.667.66.667h3.958c.365 0 .66-.299.66-.667v-2h8.575c.365 0 .66-.298.66-.666zm-3.958-5.334h-.66a.663.663 0 00-.66.667c0 .368.295.667.66.667h.66V36H18.47v-8h2.639v3.333zm6.596 1.334c0 .368.295.666.66.666h3.958c.365 0 .66-.298.66-.666v-5.334a.663.663 0 00-.66-.666h-3.958a.663.663 0 00-.66.666v5.334zM29.025 28h2.638v1.333h-2.638V28zm0 2.667h2.638V32h-2.638v-1.333z" fill="#fff"/><path d="M38.26 36.123V7.333a.663.663 0 00-.66-.666.663.663 0 00-.66.666v28.244a2.615 2.615 0 00-4.278.453 1.919 1.919 0 00-.34-.03 1.992 1.992 0 00-1.978 2c0 1.103.888 2 1.979 2H37.6a1.992 1.992 0 001.979-2c0-.868-.553-1.6-1.32-1.877zm-.66 2.544h-5.277c-.364 0-.66-.3-.66-.667 0-.367.296-.667.66-.667.126 0 .246.037.357.109.18.118.407.139.606.057a.667.667 0 00.395-.467A1.313 1.313 0 0134.961 36c.616 0 1.142.425 1.28 1.032a.67.67 0 00.396.467.65.65 0 00.605-.057c.43-.28 1.018.063 1.018.558a.664.664 0 01-.66.667z" fill="#fff"/><path d="M38.92 1.333h-5.278a.663.663 0 00-.66-.666.663.663 0 00-.66-.667h-2.638a.663.663 0 00-.66.667v.666h-1.319V.667a.663.663 0 00-.66-.667h-2.637a.663.663 0 00-.66.667v.666H10.554V.667A.663.663 0 009.894 0H7.257a.663.663 0 00-.66.667v.666H.66A.663.663 0 000 2c0 .368.295.667.66.667h6.596c.365 0 .66-.299.66-.667v-.667h1.319V2c0 .368.295.667.66.667h14.513c.364 0 .66-.299.66-.667v-.667h1.318V2c0 .368.295.667.66.667h2.638c.365 0 .66-.299.66-.667v-.667h.66c0 .368.294.667.66.667 0 .368.294.667.659.667h5.937V4H1.979a.663.663 0 00-.66.667v31.456A1.996 1.996 0 000 38c0 1.103.888 2 1.979 2h5.277a1.992 1.992 0 001.98-2c0-1.103-.889-2-1.98-2-.114 0-.227.01-.339.03a2.615 2.615 0 00-4.278-.453V5.333h36.28c.365 0 .66-.298.66-.666V2a.663.663 0 00-.66-.667zM2.941 37.5a.667.667 0 00.395-.467A1.313 1.313 0 014.617 36c.616 0 1.142.425 1.281 1.032.05.211.196.386.395.467.2.082.426.061.606-.057.43-.28 1.017.063 1.017.558a.664.664 0 01-.66.667H1.98c-.364 0-.66-.3-.66-.667 0-.367.296-.667.66-.667.126 0 .247.037.357.109.18.118.407.139.606.057z" fill="#fff"/><path d="M6.596 23.333c0 .368.295.667.66.667h3.958c.365 0 .66-.299.66-.667V18a.663.663 0 00-.66-.667H7.256a.663.663 0 00-.66.667v5.333zm1.32-4.666h2.638V20H7.916v-1.333zm0 2.666h2.638v1.334H7.916v-1.334zm9.894-6.666h3.959c.364 0 .66-.299.66-.667V8.667a.663.663 0 00-.66-.667H17.81a.663.663 0 00-.66.667V14c0 .368.295.667.66.667zm.66-5.334h2.639v1.334H18.47V9.333zm0 2.667h2.639v1.333H18.47V12zm9.895 26.667H17.81a.663.663 0 00-.66.666c0 .368.295.667.66.667h10.554c.365 0 .66-.299.66-.667a.663.663 0 00-.66-.666zm-.66-15.334c0 .368.295.667.66.667h3.958c.365 0 .66-.299.66-.667V18a.663.663 0 00-.66-.667h-3.958a.663.663 0 00-.66.667v5.333zm1.32-4.666h2.638V20h-2.638v-1.333zm0 2.666h2.638v1.334h-2.638v-1.334zM7.256 14.667h3.958c.365 0 .66-.299.66-.667V8.667a.663.663 0 00-.66-.667H7.256a.663.663 0 00-.66.667V14c0 .368.295.667.66.667zm.66-5.334h2.638v1.334H7.916V9.333zm0 2.667h2.638v1.333H7.916V12zm-1.32 20.667c0 .368.295.666.66.666h3.958c.365 0 .66-.298.66-.666v-5.334a.663.663 0 00-.66-.666H7.256a.663.663 0 00-.66.666v5.334zM7.916 28h2.638v1.333H7.916V28zm0 2.667h2.638V32H7.916v-1.333zm20.449-16h3.958c.365 0 .66-.299.66-.667V8.667a.663.663 0 00-.66-.667h-3.958a.663.663 0 00-.66.667V14c0 .368.295.667.66.667zm.66-5.334h2.638v1.334h-2.638V9.333zm0 2.667h2.638v1.333h-2.638V12zM17.15 23.333c0 .368.296.667.66.667h3.959c.364 0 .66-.299.66-.667V18a.663.663 0 00-.66-.667H17.81a.663.663 0 00-.66.667v5.333zm1.32-4.666h2.639V20H18.47v-1.333zm0 2.666h2.639v1.334H18.47v-1.334z" fill="#fff"/></svg>