<svg width="60" height="60" fill="none" xmlns="http://www.w3.org/2000/svg"><path d="M59 38h-4a1 1 0 00-1 1v19h-2V35a1 1 0 00-1-1h-6a1 1 0 00-1 1v23h-2V41a1 1 0 00-1-1h-6a1 1 0 00-1 1v17h-2V47a1 1 0 00-1-1h-6a1 1 0 00-1 1v11h-2v-5a1 1 0 00-1-1h-6a1 1 0 00-1 1v5H6V36a1 1 0 00-2 0v22H1a1 1 0 000 2h14a1 1 0 001-1v-5h4v5a1 1 0 001 1h4a1 1 0 001-1V48h4v11a1 1 0 001 1h4a1 1 0 001-1V42h4v17a1 1 0 001 1h4a1 1 0 001-1V36h4v23a1 1 0 001 1h4a1 1 0 001-1V40h3a1 1 0 000-2z" fill="url(#paint0_linear)"/><path d="M59 8H40a1 1 0 000 2h18v21.586L30.707 4.293a1 1 0 00-.71-.293 1 1 0 00-.71.293L2 31.585V10h11a1 1 0 001-1V5a1 1 0 00-1-1h-1V2h6v2h-1a1 1 0 00-1 1v4a1 1 0 001 1h3a1 1 0 000-2h-2V6h1a1 1 0 001-1V1a1 1 0 00-1-1h-8a1 1 0 00-1 1v4a1 1 0 001 1h1v2H1a.998.998 0 00-1 1l.004 25a1 1 0 001.707.707L29.997 6.411l28.296 28.296A1 1 0 0060 34V9a1 1 0 00-1-1z" fill="url(#paint1_linear)"/><path d="M34 20c0-2.206-1.794-4-4-4s-4 1.794-4 4 1.794 4 4 4 4-1.794 4-4zm-6 0c0-1.103.897-2 2-2s2 .897 2 2-.897 2-2 2-2-.897-2-2z" fill="url(#paint2_linear)"/><path d="M24 35v8a1 1 0 002 0v-7h8v1a1 1 0 002 0v-2a1 1 0 00-1-1H25a1 1 0 00-1 1z" fill="url(#paint3_linear)"/><path d="M19 34h-8a1 1 0 00-1 1v11H9a1 1 0 000 2h12a1 1 0 000-2h-1V35a1 1 0 00-1-1zm-1 12h-6v-4h6v4zm0-6h-6v-4h6v4z" fill="url(#paint4_linear)"/><defs><linearGradient id="paint0_linear" x1="30" y1="34" x2="30" y2="60" gradientUnits="userSpaceOnUse"><stop stop-color="#4CD4C9"/><stop offset="1" stop-color="#5889E9"/></linearGradient><linearGradient id="paint1_linear" x1="30" y1="0" x2="30" y2="35" gradientUnits="userSpaceOnUse"><stop stop-color="#4CD4C9"/><stop offset="1" stop-color="#5889E9"/></linearGradient><linearGradient id="paint2_linear" x1="30" y1="16" x2="30" y2="24" gradientUnits="userSpaceOnUse"><stop stop-color="#4CD4C9"/><stop offset="1" stop-color="#5889E9"/></linearGradient><linearGradient id="paint3_linear" x1="30" y1="34" x2="30" y2="44" gradientUnits="userSpaceOnUse"><stop stop-color="#4CD4C9"/><stop offset="1" stop-color="#5889E9"/></linearGradient><linearGradient id="paint4_linear" x1="15" y1="34" x2="15" y2="48" gradientUnits="userSpaceOnUse"><stop stop-color="#4CD4C9"/><stop offset="1" stop-color="#5889E9"/></linearGradient></defs></svg>