<svg width="40" height="40" fill="none" xmlns="http://www.w3.org/2000/svg"><path d="M18.535 13.995c-.04.621-.065 1.284-.065 2.005 0 3.34.986 5.333 2.639 5.333 2.083 0 2.638-2.514 2.638-4a.664.664 0 00-.66-.666.663.663 0 00-.659.666c0 .027-.057 2.667-1.32 2.667-.764 0-1.319-1.682-1.319-4 0-7.773 2.7-8.658 2.785-8.683a.667.667 0 00.5-.781.658.658 0 00-.775-.523c-.132.027-.61.154-1.186.652.001-.115.01-.23.04-.344a1.321 1.321 0 011.616-.942c.34.092.625.313.8.621a1.342 1.342 0 01-.481 1.821.671.671 0 00-.242.912.658.658 0 00.901.243 2.686 2.686 0 00.966-3.643 2.627 2.627 0 00-1.602-1.242 2.595 2.595 0 00-2.002.266 2.648 2.648 0 00-1.23 1.62c-.17.644-.09 1.312.22 1.921-.566.93-1.095 2.317-1.389 4.378-.987-1.195-1.56-2.718-1.56-4.276 0-3.676 2.96-6.667 6.597-6.667 3.637 0 6.597 2.991 6.597 6.667 0 3.676-2.96 6.667-6.597 6.667-.716 0-1.42-.116-2.093-.342a.659.659 0 00-.834.42c-.116.35.07.727.416.844a7.835 7.835 0 002.511.41c4.365 0 7.916-3.588 7.916-8 0-4.41-3.55-7.999-7.916-7.999-4.365 0-7.915 3.589-7.915 8 0 2.273 1.01 4.483 2.703 5.995zm20.851 5.534l-6.851-6.924a.655.655 0 00-.933 0 .672.672 0 000 .942l6.658 6.73v2.39h-2.366l-.273-.276v-1.724a.663.663 0 00-.66-.667h-.66v-.666a.663.663 0 00-.659-.667h-1.705l-.274-.277v-1.723a.663.663 0 00-.66-.667h-1.705l-.064-.065a.655.655 0 00-.933 0 .672.672 0 000 .943l.257.26a.655.655 0 00.467.195h1.319v1.333c0 .177.07.346.193.47l.66.669a.656.656 0 00.466.195h1.32v.667c0 .368.295.666.66.666h.659v1.334c0 .176.07.346.193.471l.66.667a.655.655 0 00.466.195h3.298c.364 0 .66-.299.66-.667V20a.669.669 0 00-.193-.471zM3.958 11.333c0 .368.295.667.66.667h.66v4h-.66a.663.663 0 00-.66.667c0 .368.295.666.66.666h.66v4h-.66a.663.663 0 00-.66.667c0 .368.295.667.66.667h.66v4h-.66a.663.663 0 00-.66.666c0 .368.295.667.66.667h.66v4h-.66a.663.663 0 00-.66.666c0 .369.295.667.66.667h.66v3.334c0 .367.295.666.659.666.364 0 .66-.298.66-.666v-3.334h2.638v3.334c0 .367.295.666.66.666.364 0 .66-.298.66-.666v-3.334h2.638v3.334c0 .367.295.666.66.666a.662.662 0 00.659-.666v-3.334h2.639v3.334c0 .367.295.666.66.666a.663.663 0 00.659-.666v-3.334h.66c.364 0 .66-.298.66-.666a.663.663 0 00-.66-.667h-.66v-4h.66c.364 0 .66-.299.66-.667a.663.663 0 00-.66-.666h-.66v-4c.364 0 .66-.3.66-.667a.663.663 0 00-.66-.667.663.663 0 00-.66-.666.663.663 0 00-.66.666h-2.638v-4h1.979c.364 0 .66-.298.66-.666a.663.663 0 00-.66-.667h-1.979v-4h.33c.364 0 .66-.299.66-.667a.663.663 0 00-.66-.666H4.618a.663.663 0 00-.66.666zm10.554 11.334h2.639v4h-2.639v-4zm0 5.333h2.639v4h-2.639v-4zm-3.958-16h2.639v4h-2.639v-4zm0 5.333h2.639v4h-2.639v-4zm0 5.334h2.639v4h-2.639v-4zm0 5.333h2.639v4h-2.639v-4zM6.596 12h2.639v4H6.596v-4zm0 5.333h2.639v4H6.596v-4zm0 5.334h2.639v4H6.596v-4zm0 5.333h2.639v4H6.596v-4zm7.257-18.667c.364 0 .66-.298.66-.666a.663.663 0 00-.66-.667H9.895a.663.663 0 00-.66.667c0 .368.296.666.66.666h3.958z" fill="#fff"/><path d="M38.92 38.667h-9.895v-2.734a3.33 3.33 0 002.638-3.266c0-.087-.037-8.667-3.298-8.667-3.26 0-3.298 8.58-3.298 8.667a3.33 3.33 0 002.638 3.266v2.734h-5.277V23.333a.664.664 0 00-.66-.666.663.663 0 00-.66.666v15.334H2.639V9.333h4.618c.364 0 .66-.298.66-.666v-2h5.937c.364 0 .66-.299.66-.667a.663.663 0 00-.66-.667H7.256a.663.663 0 00-.66.667v2H1.98a.663.663 0 00-.66.667v30H.66a.663.663 0 00-.659.666c0 .368.296.667.66.667h38.26a.664.664 0 00.659-.667.664.664 0 00-.66-.666zm-12.534-6c0-3.322.883-7.334 1.979-7.334s1.979 4.012 1.979 7.334c0 1.102-.888 2-1.98 2a1.992 1.992 0 01-1.978-2z" fill="#fff"/></svg>