<svg width="60" height="60" fill="none" xmlns="http://www.w3.org/2000/svg"><path d="M58.964 57.706L44.901 29.58a.938.938 0 00-.839-.518h-9.274l.118-.511a9.395 9.395 0 006.344-8.864c0-5.17-4.206-9.375-9.375-9.375-5.17 0-9.375 4.205-9.375 9.374a9.395 9.395 0 006.344 8.865l.118.51H15.938a.94.94 0 00-.84.519L1.036 57.706a.936.936 0 00.839 1.356h56.25a.938.938 0 00.839-1.357zM28.4 53.163l4.024 4.025h-2.973l-7.226-7.226a.936.936 0 00-1.325 0l-7.226 7.225h-2.973l8.712-8.712a.937.937 0 000-1.325l-7.335-7.335.99-1.983 4.08 4.08a.936.936 0 001.327 0l4.688-4.687a.935.935 0 00.274-.663v-5.624h1.875v7.111l-5.35 5.35a.936.936 0 000 1.326l5.625 5.625a.935.935 0 001.326 0l8.163-8.163h14.032l.938 1.876H36.563a.933.933 0 00-.663.274l-7.5 7.5a.936.936 0 000 1.326zm-1.6 4.025H16.325l5.236-5.237 5.237 5.236zm-2.425-37.5c0-4.136 3.365-7.5 7.5-7.5s7.5 3.364 7.5 7.5c0 3.36-2.266 6.33-5.51 7.223a.939.939 0 00-.664.693l-1.326 5.734-1.326-5.734a.937.937 0 00-.664-.693 7.514 7.514 0 01-5.51-7.224zm6.586 18.023a.938.938 0 001.828 0l1.566-6.773h9.128l4.688 9.375H34.688a.933.933 0 00-.663.274l-7.775 7.775-4.3-4.3 4.963-4.962a.935.935 0 00.274-.663v-7.5h2.208l1.566 6.774zm-14.444-6.773h5.046v5.236l-3.75 3.75-3.86-3.86 2.564-5.127zm-5.322 10.645l6.23 6.23-9.376 9.374H3.392l7.803-15.604zm23.88 15.605L30.389 52.5l6.563-6.563h14.032l3.75 7.5H50.19l-3.471-5.207a.934.934 0 00-1.443-.143L43.5 49.861l-1.436-2.514c-.333-.584-1.295-.584-1.628 0l-3.48 6.09h-2.269v1.876h20.984l.937 1.874H35.076zm8.31-3.75h-4.27l2.135-3.736 2.135 3.736zm2.159 0l-1.08-1.89 1.328-1.326 2.144 3.215h-2.392z" fill="url(#paint0_linear)"/><path d="M35.625 19.688H37.5a5.63 5.63 0 00-5.625-5.625v1.874a3.754 3.754 0 013.75 3.75z" fill="url(#paint1_linear)"/><path d="M34.124 22.688l1.126 1.5a5.642 5.642 0 001.78-2.25l-1.717-.75a3.744 3.744 0 01-1.189 1.5z" fill="url(#paint2_linear)"/><path d="M3.75 14.063a.939.939 0 00-.78.417l-1.875 2.812a.937.937 0 000 1.04l1.875 2.812a.937.937 0 00.78.419h4.688V30c0 .517.419.938.937.938h3.75c.518 0 .938-.42.938-.938v-8.438h6.562a.938.938 0 00.78-1.456l-1.528-2.294 1.528-2.292a.938.938 0 00-.78-1.457h-6.563v-1.876h4.688a.939.939 0 00.78-.417l1.875-2.812a.937.937 0 000-1.04L19.53 5.106a.937.937 0 00-.78-.418h-4.688V1.874a.937.937 0 00-.937-.938h-3.75a.937.937 0 00-.938.938v2.813H1.875a.938.938 0 00-.78 1.456l1.528 2.293-1.528 2.293a.938.938 0 00.78 1.457h6.563v1.876H3.75zm8.438 15h-1.876v-7.5h1.876v7.5zm5.782-10.73l.904 1.355H4.252l-1.25-1.875 1.25-1.875h14.622l-.904 1.354a.938.938 0 000 1.04zm-7.657-15.52h1.874v1.874h-1.874V2.813zM4.53 7.917l-.904-1.354h14.622l1.25 1.875-1.25 1.874H3.626l.904-1.354a.938.938 0 000-1.04zm5.782 4.27h1.876v1.876h-1.876v-1.876z" fill="url(#paint3_linear)"/><path d="M4.688 16.875h1.875v1.875H4.688v-1.875z" fill="url(#paint4_linear)"/><path d="M8.437 16.875h1.875v1.875H8.437v-1.875z" fill="url(#paint5_linear)"/><path d="M15.938 7.5h1.874v1.875h-1.875V7.5z" fill="url(#paint6_linear)"/><path d="M12.188 7.5h1.874v1.875h-1.874V7.5z" fill="url(#paint7_linear)"/><defs><linearGradient id="paint0_linear" x1="30" y1="10.313" x2="30" y2="59.063" gradientUnits="userSpaceOnUse"><stop stop-color="#5889E9"/><stop offset="1" stop-color="#4CD4C9"/></linearGradient><linearGradient id="paint1_linear" x1="34.688" y1="14.063" x2="34.688" y2="19.688" gradientUnits="userSpaceOnUse"><stop stop-color="#5889E9"/><stop offset="1" stop-color="#4CD4C9"/></linearGradient><linearGradient id="paint2_linear" x1="35.577" y1="21.188" x2="35.577" y2="24.188" gradientUnits="userSpaceOnUse"><stop stop-color="#5889E9"/><stop offset="1" stop-color="#4CD4C9"/></linearGradient><linearGradient id="paint3_linear" x1="11.25" y1=".938" x2="11.25" y2="30.938" gradientUnits="userSpaceOnUse"><stop stop-color="#5889E9"/><stop offset="1" stop-color="#4CD4C9"/></linearGradient><linearGradient id="paint4_linear" x1="5.625" y1="16.875" x2="5.625" y2="18.75" gradientUnits="userSpaceOnUse"><stop stop-color="#5889E9"/><stop offset="1" stop-color="#4CD4C9"/></linearGradient><linearGradient id="paint5_linear" x1="9.375" y1="16.875" x2="9.375" y2="18.75" gradientUnits="userSpaceOnUse"><stop stop-color="#5889E9"/><stop offset="1" stop-color="#4CD4C9"/></linearGradient><linearGradient id="paint6_linear" x1="16.875" y1="7.5" x2="16.875" y2="9.375" gradientUnits="userSpaceOnUse"><stop stop-color="#5889E9"/><stop offset="1" stop-color="#4CD4C9"/></linearGradient><linearGradient id="paint7_linear" x1="13.125" y1="7.5" x2="13.125" y2="9.375" gradientUnits="userSpaceOnUse"><stop stop-color="#5889E9"/><stop offset="1" stop-color="#4CD4C9"/></linearGradient></defs></svg>