<svg width="107" height="45" fill="none" xmlns="http://www.w3.org/2000/svg"><g clip-path="url(#clip0)" fill="#231F20"><path d="M8.689 30.072l5.883 14.655h-3.295l-1.235-3.162H4.459l-1.235 3.162H0l5.905-14.655H8.69zm-3.266 8.793h3.684L7.251 34.07l-1.828 4.795zm14.005-8.793v11.702h5.108v2.953h-8.248V30.072h3.14zm7.098 0h5.36a6.143 6.143 0 011.856.272 4.437 4.437 0 011.476.774c.41.333.74.756.963 1.235a3.88 3.88 0 01.338 1.675 3.158 3.158 0 01-.44 1.715 3.232 3.232 0 01-1.258 1.15 3.915 3.915 0 011.927 1.35 3.59 3.59 0 01.675 2.193 4.26 4.26 0 01-.366 1.8 3.786 3.786 0 01-1.036 1.35 4.635 4.635 0 01-1.643.844 7.492 7.492 0 01-2.18.297h-5.672V30.072zm5.044 5.84c.483.018.958-.126 1.35-.41a1.624 1.624 0 000-2.407 2.158 2.158 0 00-1.35-.408h-1.967v3.224h1.967zm.44 6.174c.675 0 1.212-.153 1.612-.46.4-.307.602-.761.607-1.362a1.609 1.609 0 00-.607-1.35c-.405-.313-.942-.47-1.611-.47h-2.408v3.642h2.407zm7.746-12.014h8.625v2.848h-5.485v2.972H47.9v2.764h-5.004v3.224h5.527v2.848h-8.667V30.072zm10.739 9.944a7.514 7.514 0 002.44 1.507c.816.33 1.685.506 2.564.523.712 0 1.26-.136 1.643-.408a1.36 1.36 0 00.576-1.181 1.087 1.087 0 00-.252-.733 1.974 1.974 0 00-.674-.492 5.913 5.913 0 00-.994-.338 86.437 86.437 0 01-1.173-.313 16.545 16.545 0 01-1.518-.461 5.21 5.21 0 01-1.382-.732 3.56 3.56 0 01-1.012-1.173 3.686 3.686 0 01-.387-1.78 4.476 4.476 0 01.399-1.905 4.195 4.195 0 011.12-1.466 5.075 5.075 0 011.727-.931 7.119 7.119 0 012.194-.324c1.73 0 3.238.405 4.521 1.215v3.487a7.84 7.84 0 00-2.166-1.34 6.19 6.19 0 00-2.328-.465c-.767 0-1.33.143-1.687.428a1.348 1.348 0 00-.534 1.099.89.89 0 00.22.607c.163.18.358.33.575.44.27.138.552.246.844.324.32.091.662.185 1.026.282.53.14 1.075.3 1.633.48a5.98 5.98 0 011.528.745 3.88 3.88 0 011.14 1.215c.322.578.477 1.233.451 1.894a4.838 4.838 0 01-.381 1.934 4.24 4.24 0 01-1.078 1.506 5.06 5.06 0 01-1.706.984 6.745 6.745 0 01-2.26.356c-.917 0-1.831-.108-2.722-.324a8.268 8.268 0 01-2.345-.931v-3.729h-.002zm11.346-9.944h10.886v2.93h-3.85v11.724h-3.162V33.005h-3.88v-2.932h.006zm18.362 0l5.883 14.655h-3.288l-1.236-3.162h-5.589l-1.235 3.162h-3.23l5.906-14.655h2.789zm-3.267 8.793h3.683l-1.856-4.795-1.827 4.795zm7.935-8.793h10.886v2.93h-3.852v11.724h-3.162V33.005h-3.88v-2.932h.008zm12.812 0h8.625v2.848h-5.485v2.972h5.004v2.764h-5.004v3.224h5.527v2.848h-8.667V30.072zM47.666 19.883H31.292v-1.791h16.374c1.517 0 3-.45 4.26-1.294l2.85-1.907a8.773 8.773 0 019.984.187l1.891 1.369a7.6 7.6 0 004.497 1.457h3.973v1.797h-3.973a9.386 9.386 0 01-5.544-1.8l-1.89-1.367a6.968 6.968 0 00-7.93-.15l-2.851 1.908a9.448 9.448 0 01-5.267 1.591z"/><path d="M47.666 15.245H31.292v-1.798h16.374a7.635 7.635 0 004.258-1.293l2.851-1.908a8.773 8.773 0 019.985.19l1.893 1.37a7.62 7.62 0 004.495 1.459h3.973v1.796h-3.973a9.408 9.408 0 01-5.544-1.8L63.71 11.89a6.974 6.974 0 00-7.93-.148l-2.856 1.9a9.427 9.427 0 01-5.26 1.604z"/><path d="M47.666 10.874H31.292V9.075h16.374c1.516 0 2.999-.45 4.258-1.295l2.853-1.9a8.773 8.773 0 019.983.184l1.891 1.368a7.62 7.62 0 004.497 1.458h3.973v1.796h-3.973a9.407 9.407 0 01-5.544-1.8l-1.892-1.368a6.965 6.965 0 00-7.93-.15l-2.85 1.905a9.427 9.427 0 01-5.266 1.6z"/><path d="M47.666 6.467H31.324V4.668h16.343c1.517 0 3-.45 4.259-1.295l2.851-1.905a8.773 8.773 0 019.983.194l1.891 1.368a7.62 7.62 0 004.497 1.458h3.992v1.797h-3.992a9.408 9.408 0 01-5.544-1.806l-1.892-1.368a6.963 6.963 0 00-7.93-.15l-2.857 1.906a9.425 9.425 0 01-5.26 1.6z"/></g><defs><clipPath id="clip0"><path fill="#fff" d="M0 0h106.349v45H0z"/></clipPath></defs></svg>