<svg width="16" height="16" fill="none" xmlns="http://www.w3.org/2000/svg"><path d="M16 6.434H2.587V2.286a1.078 1.078 0 012.155 0v.751h.937v-.75A2.017 2.017 0 003.665.27 2.017 2.017 0 001.65 2.285v4.148H0v2.83h.595v2.092c0 1.076.544 2.026 1.37 2.591l-.619 1.367.854.387.61-1.346c.292.09.6.138.921.138h8.538c.32 0 .63-.049.92-.138l.61 1.346.854-.387-.619-1.367a3.136 3.136 0 001.371-2.59V9.263H16v-2.83zm-.938.938v.955H12.83v-.955h2.232zm-3.17 0v3.423H8.47V7.372h3.424zm-10.954 0H7.53v.955H.938v-.955zm13.53 3.984a2.202 2.202 0 01-2.2 2.2H3.732a2.202 2.202 0 01-2.199-2.2V9.264h6v2.469h5.298V9.264h1.638v2.092z" fill="#0F0F0F"/></svg>